<?xml version="1.0" encoding="UTF-8"?>
<svg xmlns="http://www.w3.org/2000/svg" version="1.1" viewBox="0 0 800 800">
  <!-- Generator: Adobe Illustrator 29.5.1, SVG Export Plug-In . SVG Version: 2.1.0 Build 141)  -->
  <defs>
    <style>
      .st0 {
        fill: #fff;
      }
    </style>
  </defs>
  <g id="Layer_1" focusable="false">
    <path class="st0" d="M57.1,400v342.9h685.7V57.1H57.1v342.9h0ZM477.7,387.9v30.8h-88.4v281.3h-72.3v-281.3h-88.4v-61.6h249.1v30.8h0ZM651.8,360.9c11,2.1,23.3,5.1,27.6,6.7l7.2,2.9v33.5c0,18.5-.5,33.5-1.1,33.5s-6.2-2.9-12.6-6.4c-24.1-13.7-62.7-18.8-86.2-11.8-5.6,1.6-13.9,6.7-18.2,11-6.4,6.2-7.8,9.9-7.8,19.8s1.3,13.7,10.2,22c5.6,5.4,26.5,17.7,46.9,27.9,42.9,21.2,64.6,39.1,74.5,61.3,8.8,19.8,9.1,61.6.5,80.4-8,17.7-25.7,35.6-43.1,43.9-37,17.4-97.2,19-144.4,3.5l-16.9-5.6v-74.5l13.4,9.6c17.4,12.6,39.9,20.4,63.5,22,23.6,1.6,41-2.7,51.7-12.9,6.7-6.2,8-9.6,8-19.8,0-19.6-11.2-29.7-57.3-52.2-40.7-20.1-53.6-29.2-65.6-46.9-26.8-38.8-18.7-98.3,17.1-125.4,30.5-23.3,81.2-31.9,132.6-22.5h0Z"/>
  </g>
</svg>