<?xml version="1.0" encoding="UTF-8"?>
<svg id="Layer_1" xmlns="http://www.w3.org/2000/svg" version="1.1" viewBox="0 0 90 90">
  <!-- Generator: Adobe Illustrator 29.5.1, SVG Export Plug-In . SVG Version: 2.1.0 Build 141)  -->
  <defs>
    <style>
      .st0 {
        fill: #fff;
      }
    </style>
  </defs>
  <path class="st0" d="M18,12c-3.3,0-6,2.7-6,6v54c0,3.3,2.7,6,6,6h54c3.3,0,6-2.7,6-6V18c0-3.3-2.7-6-6-6H18ZM59,27.7c1.9,0,3.1,1.2,3.1,2.8s-1.3,2.8-3.1,2.8-3.1-1.2-3.1-2.8,1.3-2.8,3.1-2.8ZM35.4,29.9h5.9l10.5,29.6h-5.7l-2.5-7.6h-10.9l-2.5,7.6h-5.3l10.5-29.6ZM38.1,35.5l-4.1,12.2h8.4l-4-12.2h-.4ZM56.5,37h5.1v22.4h-5.1v-22.4Z"/>
</svg>