<?xml version="1.0" encoding="UTF-8"?>
<svg id="Layer_1" xmlns="http://www.w3.org/2000/svg" version="1.1" viewBox="0 0 100 100">
  <!-- Generator: Adobe Illustrator 29.5.1, SVG Export Plug-In . SVG Version: 2.1.0 Build 141)  -->
  <defs>
    <style>
      .st0 {
        fill: #fff;
      }
    </style>
  </defs>
  <path class="st0" d="M50,4v28h-14c-7.7,0-14-6.3-14-14s6.3-14,14-14h14ZM50,36v28h-14c-7.7,0-14-6.3-14-14s6.3-14,14-14h14ZM50,68v14c0,7.7-6.3,14-14,14s-14-6.3-14-14,6.3-14,14-14h14ZM82,18c0,7.7-6.3,14-14,14h-14V4h14c7.7,0,14,6.3,14,14ZM68,36c-7.7,0-14,6.3-14,14s6.3,14,14,14,14-6.3,14-14-6.3-14-14-14Z"/>
</svg>