<?xml version="1.0" encoding="UTF-8"?>
<svg id="Layer_1" xmlns="http://www.w3.org/2000/svg" version="1.1" viewBox="0 0 90 90">
  <!-- Generator: Adobe Illustrator 29.5.1, SVG Export Plug-In . SVG Version: 2.1.0 Build 141)  -->
  <defs>
    <style>
      .st0 {
        fill: #fff;
      }
    </style>
  </defs>
  <path class="st0" d="M18,12c-3.3,0-6,2.7-6,6v54c0,3.3,2.7,6,6,6h54c3.3,0,6-2.7,6-6V18c0-3.3-2.7-6-6-6H18ZM24,30h11.9c5.9,0,9.9,4,9.9,10s-4.2,9.9-10.2,9.9h-6.4v9.7h-5.3v-29.6ZM29.3,34.4v11.1h5.2c3.8,0,6-2,6-5.5s-2.2-5.6-6-5.6h-5.2ZM57.6,36.7c5.3,0,8.7,2.4,9,6.4h-4.8c-.4-1.6-1.9-2.6-4.2-2.6s-4.1,1.1-4.1,2.7,1.1,2.1,3.3,2.6l4,.9c4.3,1,6.3,2.8,6.3,6.1s-4,7.2-9.6,7.2-9.1-2.4-9.5-6.5h5c.5,1.7,2.1,2.6,4.6,2.6s4.3-1.1,4.3-2.8-1-2.1-3.1-2.5l-4-.9c-4.3-1-6.3-3-6.3-6.4s3.7-6.9,9-6.9Z"/>
</svg>