<?xml version="1.0" encoding="UTF-8"?>
<svg id="Layer_1" xmlns="http://www.w3.org/2000/svg" version="1.1" viewBox="0 0 90 90">
  <!-- Generator: Adobe Illustrator 29.5.1, SVG Export Plug-In . SVG Version: 2.1.0 Build 141)  -->
  <defs>
    <style>
      .st0 {
        fill: #fff;
      }
    </style>
  </defs>
  <path class="st0" d="M18,12c-3.3,0-6,2.7-6,6v54c0,3.3,2.7,6,6,6h54c3.3,0,6-2.7,6-6V18c0-3.3-2.7-6-6-6H18ZM31.2,30.4h5.9l10.5,29.6h-5.7l-2.5-7.6h-10.9l-2.5,7.6h-5.3l10.5-29.6ZM33.9,36l-4.1,12.2h8.4l-4-12.2h-.4ZM60.5,37.1c6.4,0,10.2,4.2,10.2,11.3v1.6h-15.7v.3c.1,3.7,2.3,6.1,5.6,6.1s4.3-.9,5-2.6h4.8c-1,4.1-4.7,6.6-10,6.6s-10.6-4.4-10.6-11.6,4-11.7,10.5-11.7ZM60.4,41.1c-3,0-5.2,2.2-5.4,5.5h10.6c-.1-3.3-2.1-5.5-5.2-5.5Z"/>
</svg>