<?xml version="1.0" encoding="UTF-8"?>
<svg id="Layer_1" xmlns="http://www.w3.org/2000/svg" version="1.1" viewBox="0 0 90 90">
  <!-- Generator: Adobe Illustrator 29.5.1, SVG Export Plug-In . SVG Version: 2.1.0 Build 141)  -->
  <defs>
    <style>
      .st0 {
        fill: #fff;
        fill-rule: evenodd;
      }
    </style>
  </defs>
  <path class="st0" d="M45,9c19.9,0,36,16.1,36,36s-16.1,36-36,36S9,64.9,9,45,25.1,9,45,9ZM30.3,44.3c-2.4,0-4.7.5-6.5,1.6-2.3,1.3-4,3.5-4.7,6.1-.7,2.8-.3,5.9,1.2,8.4,2.1,3.5,5.8,5.6,9.5,5.6s3.4-.4,4.9-1.3c4.8-2.7,7.7-10.3,8.8-16.4.1-.8-.3-1.5-1-1.7-3.7-1.3-8.2-2.3-12.2-2.2ZM59.9,44.3c-4,0-8.6.9-12.2,2.2-.7.3-1.1,1-1,1.7,1.1,6.1,4,13.6,8.8,16.4,1.5.9,3.2,1.3,4.9,1.3,3.7,0,7.4-2,9.5-5.6,1.5-2.6,1.9-5.6,1.2-8.4-.7-2.6-2.4-4.8-4.7-6.1-1.8-1-4.1-1.5-6.5-1.6ZM45.1,18c-6,0-10.8,4.6-10.8,10.2s5.1,11.7,9.8,15.7c.3.2.6.4,1,.4s.7-.1,1-.4c4.8-4,9.8-10.2,9.8-15.7s-4.9-10.2-10.8-10.2Z"/>
</svg>