<?xml version="1.0" encoding="UTF-8"?>
<svg id="Layer_1" xmlns="http://www.w3.org/2000/svg" version="1.1" viewBox="0 0 100 100">
  <!-- Generator: Adobe Illustrator 29.5.1, SVG Export Plug-In . SVG Version: 2.1.0 Build 141)  -->
  <defs>
    <style>
      .st0 {
        fill: #fff;
      }
    </style>
  </defs>
  <path class="st0" d="M51.6,10c-.4,0-.8,0-1.2,0-1.6.2-3,1-4,2.2-2.1,2.6-1.7,6.4.9,8.4l6.6,5.3H19.9c-3.3,0-6,2.7-6,6s2.7,6,6,6h14.9L6.3,61c-1.3,1-2.1,2.5-2.3,4.2-.2,1.7.3,3.3,1.3,4.6s2.5,2.1,4.2,2.3c1.7.2,3.3-.3,4.6-1.3l13.9-11.2c1.2,15.9,15.9,28.5,33.9,28.5s34-13.7,34-30.5-5.8-20-15.6-25.6l-25.6-20.5c-.9-.8-2.1-1.2-3.2-1.3ZM61.9,40c9.9,0,18,6.7,18,15s-8.1,15-18,15-18-6.7-18-15,8.1-15,18-15ZM61.9,44c-6.6,0-12,4.5-12,10s5.4,10,12,10,12-4.5,12-10-5.4-10-12-10Z"/>
</svg>