<?xml version="1.0" encoding="UTF-8"?>
<svg id="Layer_1" xmlns="http://www.w3.org/2000/svg" version="1.1" viewBox="0 0 100 100">
  <!-- Generator: Adobe Illustrator 29.5.1, SVG Export Plug-In . SVG Version: 2.1.0 Build 141)  -->
  <defs>
    <style>
      .st0 {
        fill: #fff;
      }
    </style>
  </defs>
  <path class="st0" d="M12,8c-2.2,0-4,1.8-4,4v76c0,2.2,1.8,4,4,4h76c2.2,0,4-1.8,4-4V12c0-2.2-1.8-4-4-4H12ZM39.2,28c4,0,7.4,1,9.6,3.1,2,2,3.1,5.2,3.1,9s-1,6.7-2.6,8.8c-2.3,3.2-6.3,4.8-10.2,4.8s-1.5,0-2.2,0v18.3h-4.9V28.8c2-.5,4.3-.8,7.2-.8ZM40,31.3c-1.2,0-2.1.1-2.8.3v17.2c.6,0,1.2.1,2,.1,4.8,0,8.1-3.2,8.1-9.3s-1.8-8.4-7.3-8.4ZM69,39.5c.4,0,.7,0,1,0v4.7c-.3,0-.6,0-1,0-3.1,0-5.2,2.9-5.7,6.5-.1.8-.2,1.7-.2,2.8v18.5h-5v-32h5v4.5l.2-.8c1-2.9,2.9-4.2,5.7-4.2Z"/>
</svg>