<?xml version="1.0" encoding="UTF-8"?>
<svg id="Layer_1" xmlns="http://www.w3.org/2000/svg" version="1.1" viewBox="0 0 800 800">
  <!-- Generator: Adobe Illustrator 29.5.1, SVG Export Plug-In . SVG Version: 2.1.0 Build 141)  -->
  <defs>
    <style>
      .st0 {
        fill: #fff;
      }
    </style>
  </defs>
  <path class="st0" d="M593.7,750.1c-3,1.6-2.7,2.1.1.6.9-.4,1.7-.9,2.4-1.5q0-.5-2.5.9h0ZM599.7,746.9q-1.4,1.2.3.4c.9-.5,1.7-1,1.7-1.2,0-.7-.4-.5-2,.8ZM603.6,744.5q-1.4,1.2.3.4c.9-.5,1.7-1.1,1.7-1.2,0-.6-.4-.5-2,.8ZM607.6,742.2q-1.4,1.2.2.4c.9-.5,1.7-1,1.7-1.2,0-.6-.4-.5-1.9.8h0ZM612.9,738.7c-2.7,1.8-3.7,3-1.2,1.7,1.7-1,4.5-3.3,4-3.3-1.1.4-2,1.1-2.9,1.6h0ZM373.8.3c-1.8.1-7.3.6-12.1,1C248,11.6,141.6,72.8,74.2,167.1,36.9,218.8,12.7,278.8,3.6,341.8.4,363.8,0,370.3,0,400.1s.4,36.2,3.6,58.2c21.8,150.3,128.7,276.4,273.6,323.2,26.1,8.3,53.4,14.1,84.5,17.6,12.1,1.3,64.4,1.3,76.5,0,53.8-6,99.2-19.3,144.2-42.2,6.9-3.5,8.2-4.4,7.3-5.2-22-29-43.6-58.1-65.2-87.4l-63.9-86.3-80.1-118.6c-26.7-39.7-53.5-79.3-80.7-118.6-.3,0-.6,52.7-.8,117-.3,112.6-.3,117.2-1.7,119.8-1.4,3.1-3.8,5.7-6.9,7.2-2.5,1.2-4.7,1.4-16.5,1.4h-13.5l-3.5-2.2c-2.2-1.4-4-3.4-5.2-5.7l-1.7-3.5v-156.8c.1,0,.4-156.8.4-156.8l2.5-3.1c1.6-1.9,3.5-3.5,5.7-4.7,3.3-1.6,4.6-1.8,18.1-1.8s18.5.6,22.7,5.2c32.4,48.3,64.7,96.7,96.5,145.3,52,78.8,122.9,186.3,157.8,239.1l63.4,96,3.1-2.1c30.5-20.3,58.2-44.5,82.1-72.1,50.4-57.7,83.1-128.7,94.2-204.4,3.2-22,3.6-28.5,3.6-58.3s-.4-36.2-3.6-58.2c-21.8-150.3-128.7-276.4-273.6-323.2-27.1-8.6-55-14.4-83.2-17.4-7.6-.8-59.3-1.7-65.8-1h0ZM537.5,242.2c3.8,1.8,6.6,5.2,7.9,9.1.7,2.1.8,45.6.7,143.5l-.3,140.6-24.7-38-24.9-38v-102.1c0-66.2.3-103.3.6-105.1,1.2-4.2,4-7.7,7.8-9.9,3.1-1.6,4.3-1.7,16.7-1.7s13.5.1,16.1,1.6h0Z"/>
</svg>